<svg xmlns="http://www.w3.org/2000/svg" xmlns:xlink="http://www.w3.org/1999/xlink" version="1.1" width="256"
  height="256" viewBox="0 0 256 256" xml:space="preserve">

  <defs>
  </defs>
  <g style="stroke: none; stroke-width: 0; stroke-dasharray: none; stroke-linecap: butt; stroke-linejoin: miter; stroke-miterlimit: 10; fill: none; fill-rule: nonzero; opacity: 1;"
    transform="translate(1.4065934065934016 1.4065934065934016) scale(2.81 2.81)">
    <path
      d="M 78.068 67.628 c -3.813 0 -6.916 -3.103 -6.916 -6.916 s 3.103 -6.916 6.916 -6.916 c 3.814 0 6.917 3.103 6.917 6.916 S 81.883 67.628 78.068 67.628 z M 78.068 56.796 c -2.159 0 -3.916 1.757 -3.916 3.916 s 1.757 3.916 3.916 3.916 c 2.16 0 3.917 -1.757 3.917 -3.916 S 80.229 56.796 78.068 56.796 z"
      style="stroke: none; stroke-width: 1; stroke-dasharray: none; stroke-linecap: butt; stroke-linejoin: miter; stroke-miterlimit: 10; fill: rgb(0,0,0); fill-rule: nonzero; opacity: 1;"
      transform=" matrix(1 0 0 1 0 0) " stroke-linecap="round" />
    <path
      d="M 11.818 67.628 c -3.813 0 -6.916 -3.103 -6.916 -6.916 s 3.103 -6.916 6.916 -6.916 c 3.814 0 6.917 3.103 6.917 6.916 S 15.632 67.628 11.818 67.628 z M 11.818 56.796 c -2.159 0 -3.916 1.757 -3.916 3.916 s 1.757 3.916 3.916 3.916 c 2.16 0 3.917 -1.757 3.917 -3.916 S 13.978 56.796 11.818 56.796 z"
      style="stroke: none; stroke-width: 1; stroke-dasharray: none; stroke-linecap: butt; stroke-linejoin: miter; stroke-miterlimit: 10; fill: rgb(0,0,0); fill-rule: nonzero; opacity: 1;"
      transform=" matrix(1 0 0 1 0 0) " stroke-linecap="round" />
    <path
      d="M 78.069 62.71 c -0.539 0 -1.039 -0.21 -1.42 -0.59 c -0.369 -0.37 -0.58 -0.87 -0.58 -1.41 c 0 -0.521 0.211 -1.04 0.58 -1.41 c 0.75 -0.75 2.08 -0.75 2.83 0 c 0.37 0.37 0.59 0.88 0.59 1.41 c 0 0.54 -0.21 1.04 -0.59 1.41 c -0.09 0.1 -0.189 0.18 -0.3 0.26 c -0.11 0.07 -0.229 0.13 -0.35 0.18 s -0.24 0.09 -0.37 0.11 C 78.33 62.7 78.2 62.71 78.069 62.71 z"
      style="stroke: none; stroke-width: 1; stroke-dasharray: none; stroke-linecap: butt; stroke-linejoin: miter; stroke-miterlimit: 10; fill: rgb(0,0,0); fill-rule: nonzero; opacity: 1;"
      transform=" matrix(1 0 0 1 0 0) " stroke-linecap="round" />
    <path
      d="M 11.82 62.71 c -0.54 0 -1.04 -0.21 -1.41 -0.59 c -0.19 -0.181 -0.34 -0.4 -0.44 -0.641 c -0.1 -0.239 -0.15 -0.5 -0.15 -0.77 c 0 -0.13 0.01 -0.26 0.04 -0.391 c 0.02 -0.13 0.06 -0.25 0.11 -0.369 c 0.05 -0.12 0.11 -0.24 0.19 -0.351 c 0.07 -0.109 0.15 -0.21 0.25 -0.3 c 0.74 -0.75 2.07 -0.75 2.82 0 c 0.09 0.09 0.18 0.19 0.25 0.3 c 0.07 0.11 0.13 0.23 0.18 0.351 c 0.05 0.119 0.09 0.239 0.12 0.369 c 0.02 0.131 0.04 0.261 0.04 0.391 c 0 0.54 -0.21 1.04 -0.59 1.41 C 12.86 62.5 12.35 62.71 11.82 62.71 z"
      style="stroke: none; stroke-width: 1; stroke-dasharray: none; stroke-linecap: butt; stroke-linejoin: miter; stroke-miterlimit: 10; fill: rgb(0,0,0); fill-rule: nonzero; opacity: 1;"
      transform=" matrix(1 0 0 1 0 0) " stroke-linecap="round" />
    <path
      d="M 28.311 67.628 c -3.813 0 -6.916 -3.103 -6.916 -6.916 s 3.103 -6.916 6.916 -6.916 s 6.916 3.103 6.916 6.916 S 32.125 67.628 28.311 67.628 z M 28.311 56.796 c -2.159 0 -3.916 1.757 -3.916 3.916 s 1.757 3.916 3.916 3.916 s 3.916 -1.757 3.916 -3.916 S 30.47 56.796 28.311 56.796 z"
      style="stroke: none; stroke-width: 1; stroke-dasharray: none; stroke-linecap: butt; stroke-linejoin: miter; stroke-miterlimit: 10; fill: rgb(0,0,0); fill-rule: nonzero; opacity: 1;"
      transform=" matrix(1 0 0 1 0 0) " stroke-linecap="round" />
    <path
      d="M 28.31 62.71 c -0.26 0 -0.52 -0.05 -0.76 -0.15 c -0.25 -0.1 -0.46 -0.25 -0.65 -0.439 c -0.38 -0.37 -0.59 -0.87 -0.59 -1.41 c 0 -0.13 0.01 -0.26 0.04 -0.391 c 0.03 -0.13 0.06 -0.25 0.11 -0.369 c 0.05 -0.12 0.12 -0.24 0.19 -0.351 c 0.07 -0.109 0.15 -0.21 0.25 -0.3 c 0.74 -0.75 2.08 -0.75 2.83 0 c 0.09 0.09 0.17 0.19 0.24 0.3 c 0.08 0.11 0.14 0.23 0.19 0.351 c 0.05 0.119 0.09 0.239 0.11 0.369 c 0.03 0.131 0.04 0.261 0.04 0.391 c 0 0.54 -0.21 1.04 -0.58 1.41 c -0.19 0.189 -0.41 0.34 -0.65 0.439 C 28.83 62.66 28.58 62.71 28.31 62.71 z"
      style="stroke: none; stroke-width: 1; stroke-dasharray: none; stroke-linecap: butt; stroke-linejoin: miter; stroke-miterlimit: 10; fill: rgb(0,0,0); fill-rule: nonzero; opacity: 1;"
      transform=" matrix(1 0 0 1 0 0) " stroke-linecap="round" />
    <path
      d="M 86.156 42.132 l -13.883 -1.127 L 66.55 28.157 c -0.626 -1.405 -2.024 -2.313 -3.562 -2.313 h -5.43 l -0.84 -0.37 c -4.675 -2.059 -9.635 -3.103 -14.744 -3.103 c -0.829 0 -1.5 0.671 -1.5 1.5 v 26.486 H 3.466 C 1.555 50.357 0 51.912 0 53.823 v 3.46 c 0 1.323 0.516 2.567 1.453 3.502 c 0.445 0.444 0.964 0.786 1.525 1.029 c -0.045 -0.362 -0.076 -0.728 -0.076 -1.102 c 0 -4.916 4 -8.916 8.916 -8.916 c 3.72 0 6.912 2.292 8.247 5.536 c 1.335 -3.244 4.526 -5.536 8.246 -5.536 c 4.917 0 8.916 4 8.916 8.916 c 0 0.512 -0.053 1.011 -0.136 1.5 h 32.198 c -0.083 -0.489 -0.136 -0.988 -0.136 -1.5 c 0 -4.916 4 -8.916 8.916 -8.916 c 4.917 0 8.917 4 8.917 8.916 c 0 0.443 -0.043 0.876 -0.106 1.302 C 88.68 61.454 90 59.792 90 57.809 V 46.345 C 90 44.157 88.358 42.347 86.156 42.132 z M 54.277 38.471 c 0 1.355 -1.102 2.456 -2.457 2.456 h -1.795 c -1.355 0 -2.457 -1.102 -2.457 -2.456 V 31.3 c 0 -1.355 1.102 -2.456 2.457 -2.456 h 1.795 c 1.355 0 2.457 1.102 2.457 2.456 V 38.471 z M 58.834 40.928 c -0.05 0 -0.091 -0.041 -0.091 -0.09 V 28.844 h 4.245 c 0.354 0 0.677 0.209 0.821 0.534 l 5.146 11.55 H 58.834 z"
      style="stroke: none; stroke-width: 1; stroke-dasharray: none; stroke-linecap: butt; stroke-linejoin: miter; stroke-miterlimit: 10; fill: rgb(0,0,0); fill-rule: nonzero; opacity: 1;"
      transform=" matrix(1 0 0 1 0 0) " stroke-linecap="round" />
  </g>
</svg>