<svg xmlns="http://www.w3.org/2000/svg" xmlns:xlink="http://www.w3.org/1999/xlink" version="1.1" width="256"
  height="256" viewBox="0 0 256 256" xml:space="preserve">

  <defs>
  </defs>
  <g style="stroke: none; stroke-width: 0; stroke-dasharray: none; stroke-linecap: butt; stroke-linejoin: miter; stroke-miterlimit: 10; fill: none; fill-rule: nonzero; opacity: 1;"
    transform="translate(1.4065934065934016 1.4065934065934016) scale(2.81 2.81)">
    <path
      d="M 75.44 61.648 c -4.276 0 -7.756 -3.479 -7.756 -7.757 c 0 -4.276 3.479 -7.756 7.756 -7.756 c 4.277 0 7.757 3.479 7.757 7.756 C 83.197 58.169 79.718 61.648 75.44 61.648 z M 75.44 49.136 c -2.622 0 -4.756 2.134 -4.756 4.756 c 0 2.623 2.134 4.757 4.756 4.757 c 2.623 0 4.757 -2.134 4.757 -4.757 C 80.197 51.27 78.063 49.136 75.44 49.136 z"
      style="stroke: none; stroke-width: 1; stroke-dasharray: none; stroke-linecap: butt; stroke-linejoin: miter; stroke-miterlimit: 10; fill: rgb(0,0,0); fill-rule: nonzero; opacity: 1;"
      transform=" matrix(1 0 0 1 0 0) " stroke-linecap="round" />
    <path
      d="M 18.458 61.648 c -4.277 0 -7.756 -3.479 -7.756 -7.757 c 0 -4.276 3.479 -7.756 7.756 -7.756 s 7.756 3.479 7.756 7.756 C 26.215 58.169 22.735 61.648 18.458 61.648 z M 18.458 49.136 c -2.623 0 -4.756 2.134 -4.756 4.756 c 0 2.623 2.134 4.757 4.756 4.757 s 4.756 -2.134 4.756 -4.757 C 23.215 51.27 21.081 49.136 18.458 49.136 z"
      style="stroke: none; stroke-width: 1; stroke-dasharray: none; stroke-linecap: butt; stroke-linejoin: miter; stroke-miterlimit: 10; fill: rgb(0,0,0); fill-rule: nonzero; opacity: 1;"
      transform=" matrix(1 0 0 1 0 0) " stroke-linecap="round" />
    <path
      d="M 75.439 56.39 c -0.159 0 -0.33 -0.02 -0.489 -0.05 c -0.16 -0.03 -0.311 -0.08 -0.471 -0.14 c -0.149 -0.061 -0.29 -0.141 -0.43 -0.23 c -0.13 -0.09 -0.26 -0.2 -0.38 -0.31 c -0.11 -0.12 -0.22 -0.24 -0.311 -0.38 c -0.09 -0.141 -0.17 -0.28 -0.229 -0.431 c -0.061 -0.149 -0.11 -0.31 -0.14 -0.47 c -0.03 -0.16 -0.051 -0.33 -0.051 -0.49 c 0 -0.66 0.271 -1.3 0.73 -1.77 c 0.12 -0.11 0.24 -0.221 0.38 -0.311 s 0.28 -0.16 0.43 -0.229 c 0.16 -0.061 0.311 -0.11 0.471 -0.141 c 0.819 -0.17 1.68 0.101 2.26 0.681 c 0.46 0.47 0.729 1.109 0.729 1.77 c 0 0.16 -0.02 0.33 -0.05 0.49 s -0.08 0.32 -0.14 0.47 c -0.061 0.15 -0.141 0.29 -0.23 0.431 c -0.09 0.14 -0.2 0.26 -0.31 0.38 c -0.12 0.109 -0.24 0.22 -0.38 0.31 c -0.141 0.09 -0.28 0.17 -0.431 0.23 c -0.149 0.06 -0.31 0.109 -0.47 0.14 S 75.6 56.39 75.439 56.39 z"
      style="stroke: none; stroke-width: 1; stroke-dasharray: none; stroke-linecap: butt; stroke-linejoin: miter; stroke-miterlimit: 10; fill: rgb(0,0,0); fill-rule: nonzero; opacity: 1;"
      transform=" matrix(1 0 0 1 0 0) " stroke-linecap="round" />
    <path
      d="M 18.46 56.39 c -0.66 0 -1.3 -0.27 -1.77 -0.729 c -0.46 -0.471 -0.73 -1.11 -0.73 -1.771 c 0 -0.16 0.02 -0.33 0.05 -0.49 c 0.03 -0.159 0.08 -0.31 0.14 -0.46 c 0.06 -0.159 0.14 -0.3 0.23 -0.439 c 0.09 -0.13 0.2 -0.26 0.31 -0.38 c 0.58 -0.58 1.44 -0.851 2.26 -0.681 c 0.16 0.03 0.31 0.08 0.47 0.141 c 0.15 0.069 0.29 0.14 0.43 0.229 c 0.13 0.09 0.26 0.2 0.38 0.311 c 0.11 0.12 0.22 0.25 0.31 0.38 c 0.09 0.14 0.16 0.28 0.23 0.439 c 0.06 0.15 0.11 0.301 0.14 0.46 c 0.03 0.16 0.05 0.33 0.05 0.49 c 0 0.17 -0.02 0.33 -0.05 0.49 c -0.03 0.16 -0.08 0.32 -0.14 0.47 c -0.07 0.15 -0.14 0.29 -0.23 0.431 c -0.09 0.14 -0.2 0.26 -0.31 0.38 c -0.12 0.109 -0.25 0.22 -0.38 0.31 c -0.14 0.09 -0.29 0.17 -0.44 0.23 c -0.15 0.06 -0.3 0.109 -0.46 0.14 C 18.79 56.38 18.62 56.39 18.46 56.39 z"
      style="stroke: none; stroke-width: 1; stroke-dasharray: none; stroke-linecap: butt; stroke-linejoin: miter; stroke-miterlimit: 10; fill: rgb(0,0,0); fill-rule: nonzero; opacity: 1;"
      transform=" matrix(1 0 0 1 0 0) " stroke-linecap="round" />
    <path
      d="M 83.084 40.936 l -17.381 -4.589 l -8.868 -5.145 c -3.213 -1.865 -6.875 -2.851 -10.591 -2.851 H 40.53 c -5.171 0 -10.269 0.572 -15.26 1.667 c -0.113 0.012 -0.223 0.036 -0.328 0.073 c -1.991 0.447 -3.964 0.976 -5.916 1.596 c -0.117 0.025 -0.232 0.06 -0.339 0.111 c -1.771 0.572 -3.53 1.195 -5.265 1.908 l -10.337 4.25 C 1.211 38.728 0 40.536 0 42.562 v 6.222 c 0 3.228 2.16 6.128 5.253 7.052 l 3.974 1.187 c -0.335 -0.984 -0.525 -2.035 -0.525 -3.131 c 0 -5.38 4.376 -9.756 9.756 -9.756 s 9.756 4.376 9.756 9.756 c 0 1.476 -0.339 2.871 -0.928 4.127 h 39.327 c -0.589 -1.255 -0.928 -2.651 -0.928 -4.127 c 0 -5.38 4.376 -9.756 9.756 -9.756 s 9.757 4.376 9.757 9.756 c 0 1.302 -0.261 2.543 -0.726 3.679 l 1.823 -0.251 C 88.407 57.028 90 55.2 90 53.067 v -3.152 C 90 45.703 87.156 42.011 83.084 40.936 z M 22.177 40.066 h -0.726 c -0.667 0 -1.273 -0.311 -1.663 -0.852 c -0.39 -0.542 -0.492 -1.215 -0.281 -1.847 l 1.007 -3.012 c 0.989 -0.304 1.985 -0.581 2.984 -0.839 L 22.177 40.066 z M 25.238 40.066 l 1.472 -7.295 c 4.526 -0.936 9.142 -1.419 13.82 -1.419 h 1.707 l 2.999 8.714 H 25.238 z M 61.507 38.853 c -0.92 0.783 -2.092 1.213 -3.3 1.213 h -9.798 l -2.999 -8.714 h 0.834 c 3.188 0 6.329 0.846 9.085 2.445 l 7.206 4.181 L 61.507 38.853 z"
      style="stroke: none; stroke-width: 1; stroke-dasharray: none; stroke-linecap: butt; stroke-linejoin: miter; stroke-miterlimit: 10; fill: rgb(0,0,0); fill-rule: nonzero; opacity: 1;"
      transform=" matrix(1 0 0 1 0 0) " stroke-linecap="round" />
  </g>
</svg>