<svg xmlns="http://www.w3.org/2000/svg" xmlns:xlink="http://www.w3.org/1999/xlink" version="1.1" width="256"
  height="256" viewBox="0 0 256 256" xml:space="preserve">

  <defs>
  </defs>
  <g style="stroke: none; stroke-width: 0; stroke-dasharray: none; stroke-linecap: butt; stroke-linejoin: miter; stroke-miterlimit: 10; fill: none; fill-rule: nonzero; opacity: 1;"
    transform="translate(1.4065934065934016 1.4065934065934016) scale(2.81 2.81)">
    <path
      d="M 73.788 67.171 c -4.229 0 -7.669 -3.44 -7.669 -7.669 s 3.44 -7.668 7.669 -7.668 s 7.669 3.439 7.669 7.668 S 78.017 67.171 73.788 67.171 z M 73.788 54.834 c -2.574 0 -4.669 2.094 -4.669 4.668 s 2.095 4.669 4.669 4.669 s 4.669 -2.095 4.669 -4.669 S 76.362 54.834 73.788 54.834 z"
      style="stroke: none; stroke-width: 1; stroke-dasharray: none; stroke-linecap: butt; stroke-linejoin: miter; stroke-miterlimit: 10; fill: rgb(0,0,0); fill-rule: nonzero; opacity: 1;"
      transform=" matrix(1 0 0 1 0 0) " stroke-linecap="round" />
    <path
      d="M 20.173 67.171 c -4.229 0 -7.669 -3.44 -7.669 -7.669 s 3.44 -7.668 7.669 -7.668 s 7.668 3.439 7.668 7.668 S 24.401 67.171 20.173 67.171 z M 20.173 54.834 c -2.575 0 -4.669 2.094 -4.669 4.668 s 2.094 4.669 4.669 4.669 c 2.574 0 4.668 -2.095 4.668 -4.669 S 22.747 54.834 20.173 54.834 z"
      style="stroke: none; stroke-width: 1; stroke-dasharray: none; stroke-linecap: butt; stroke-linejoin: miter; stroke-miterlimit: 10; fill: rgb(0,0,0); fill-rule: nonzero; opacity: 1;"
      transform=" matrix(1 0 0 1 0 0) " stroke-linecap="round" />
    <path
      d="M 73.79 62 c -0.16 0 -0.33 -0.021 -0.49 -0.05 c -0.16 -0.03 -0.32 -0.08 -0.47 -0.141 c -0.15 -0.06 -0.29 -0.14 -0.431 -0.229 c -0.14 -0.09 -0.27 -0.19 -0.38 -0.311 c -0.12 -0.12 -0.22 -0.239 -0.31 -0.38 c -0.09 -0.14 -0.17 -0.28 -0.23 -0.43 c -0.06 -0.15 -0.109 -0.311 -0.14 -0.47 c -0.04 -0.16 -0.05 -0.33 -0.05 -0.49 c 0 -0.66 0.26 -1.3 0.729 -1.771 c 0.11 -0.109 0.24 -0.22 0.38 -0.31 c 0.131 -0.09 0.28 -0.16 0.431 -0.23 c 0.149 -0.06 0.31 -0.109 0.47 -0.14 c 0.32 -0.06 0.65 -0.06 0.98 0 c 0.159 0.03 0.31 0.08 0.46 0.14 c 0.159 0.07 0.3 0.141 0.439 0.23 c 0.13 0.09 0.26 0.2 0.38 0.31 c 0.11 0.12 0.21 0.25 0.311 0.38 c 0.09 0.141 0.16 0.28 0.229 0.44 c 0.061 0.15 0.11 0.3 0.141 0.46 c 0.029 0.16 0.05 0.33 0.05 0.49 c 0 0.66 -0.271 1.3 -0.73 1.77 C 75.09 61.729 74.439 62 73.79 62 z"
      style="stroke: none; stroke-width: 1; stroke-dasharray: none; stroke-linecap: butt; stroke-linejoin: miter; stroke-miterlimit: 10; fill: rgb(0,0,0); fill-rule: nonzero; opacity: 1;"
      transform=" matrix(1 0 0 1 0 0) " stroke-linecap="round" />
    <path
      d="M 20.17 62 c -0.16 0 -0.32 -0.021 -0.49 -0.05 c -0.16 -0.03 -0.31 -0.08 -0.46 -0.141 c -0.15 -0.06 -0.3 -0.14 -0.43 -0.229 c -0.14 -0.09 -0.27 -0.2 -0.38 -0.311 c -0.12 -0.12 -0.22 -0.239 -0.32 -0.38 c -0.09 -0.14 -0.16 -0.28 -0.22 -0.43 c -0.07 -0.15 -0.12 -0.311 -0.15 -0.47 c -0.03 -0.16 -0.05 -0.33 -0.05 -0.49 s 0.02 -0.33 0.05 -0.49 c 0.03 -0.16 0.08 -0.31 0.15 -0.46 c 0.06 -0.16 0.13 -0.3 0.22 -0.44 c 0.1 -0.13 0.2 -0.26 0.32 -0.38 c 0.11 -0.109 0.24 -0.22 0.38 -0.31 c 0.13 -0.09 0.28 -0.16 0.43 -0.23 c 0.15 -0.06 0.3 -0.109 0.46 -0.14 c 0.82 -0.16 1.68 0.1 2.26 0.68 c 0.12 0.12 0.22 0.25 0.31 0.38 c 0.09 0.141 0.17 0.28 0.23 0.44 c 0.06 0.15 0.11 0.3 0.14 0.46 c 0.04 0.16 0.05 0.33 0.05 0.49 s -0.01 0.33 -0.05 0.49 c -0.03 0.159 -0.08 0.319 -0.14 0.47 c -0.06 0.149 -0.14 0.29 -0.23 0.43 c -0.09 0.141 -0.19 0.26 -0.31 0.38 C 21.48 61.729 20.83 62 20.17 62 z"
      style="stroke: none; stroke-width: 1; stroke-dasharray: none; stroke-linecap: butt; stroke-linejoin: miter; stroke-miterlimit: 10; fill: rgb(0,0,0); fill-rule: nonzero; opacity: 1;"
      transform=" matrix(1 0 0 1 0 0) " stroke-linecap="round" />
    <path
      d="M 90 44.475 c 0 -0.026 -0.006 -0.049 -0.008 -0.074 c -0.157 -8.907 -3.604 -21.571 -12.732 -21.571 H 60.271 c -0.828 0 -1.5 0.671 -1.5 1.5 v 18.646 H 4.274 C 1.917 42.975 0 44.892 0 47.248 v 8.35 c 0 1.451 0.566 2.814 1.593 3.839 c 1.024 1.022 2.384 1.585 3.831 1.585 c 0.004 0 0.008 0 0.013 0 l 5.197 -0.012 c -0.078 -0.493 -0.13 -0.994 -0.13 -1.508 c 0 -5.331 4.337 -9.668 9.669 -9.668 c 5.331 0 9.668 4.337 9.668 9.668 c 0 0.511 -0.052 1.01 -0.128 1.5 h 34.535 c -0.077 -0.49 -0.128 -0.989 -0.128 -1.5 c 0 -5.331 4.338 -9.668 9.669 -9.668 s 9.669 4.337 9.669 9.668 c 0 0.517 -0.052 1.02 -0.131 1.515 l 1.844 0.008 c 2.663 0 4.83 -2.167 4.83 -4.83 V 45.037 c 0 -0.165 -0.004 -0.335 -0.006 -0.503 C 89.995 44.514 90 44.495 90 44.475 z M 71.387 42.975 V 25.829 h 5.874 c 6.156 0 9.206 9.431 9.674 17.146 H 71.387 z"
      style="stroke: none; stroke-width: 1; stroke-dasharray: none; stroke-linecap: butt; stroke-linejoin: miter; stroke-miterlimit: 10; fill: rgb(0,0,0); fill-rule: nonzero; opacity: 1;"
      transform=" matrix(1 0 0 1 0 0) " stroke-linecap="round" />
  </g>
</svg>